<svg version="1.2" xmlns="http://www.w3.org/2000/svg" viewBox="0 0 64 64" width="64" height="64"><style>.a{fill:#fff}</style><path class="a" d="m32 64c-17.7 0-32-14.3-32-32 0-17.7 14.3-32 32-32 17.7 0 32 14.3 32 32 0 17.7-14.3 32-32 32z"/><path fill-rule="evenodd" d="m64 32c0 14.3-9.4 26.4-22.4 30.5v-10.5c0-2.9-1.2-5.4-3.2-7.2 7.5-1.5 12.8-5.8 12.8-12.8 0-3.5-1.4-6.8-3.7-9.4 0.2-0.7 0.5-2.1 0.5-4.6 0-1.5-0.1-3.4-0.8-5.2 0 0-4.6 0-8.9 4.1-2-0.6-4.1-0.9-6.3-0.9-2.2 0-4.3 0.3-6.3 0.9-4.3-4.1-8.9-4.1-8.9-4.1-0.7 1.8-0.8 3.7-0.8 5.2 0 2.3 0.4 3.7 0.7 4.4-2.5 2.7-3.9 6-3.9 9.6 0 7 5.3 11.3 12.8 12.8-1.7 1.5-2.7 3.6-3 5.9-0.8 0.3-1.8 0.5-3 0.5-1 0-2.8-0.5-4.6-3.2-0.7-1.1-2.2-3.2-4.2-3.2-0.4 0-1.2 0-1.2 0.6 0 0.3 0.4 0.3 1.4 1.1 0.8 0.7 1.5 1.9 1.8 3.1 0.5 2 2.3 6 6.8 6 1.6 0 2.8-0.4 2.8-0.4v7.3c-13-4.1-22.4-16.2-22.4-30.5 0-17.7 14.3-32 32-32 17.7 0 32 14.3 32 32zm-39.4 31.1q-1.1-0.2-2.2-0.6 1.1 0.4 2.2 0.6zm17-0.6q-1.1 0.4-2.2 0.6 1.1-0.2 2.2-0.6zm-7.4 1.4q-1.1 0.1-2.2 0.1 1.1 0 2.2-0.1zm4.9-0.7q-2.1 0.5-4.4 0.7 2.3-0.2 4.4-0.7zm-7.1 0.8q-1.1 0-2.2-0.1 1.1 0.1 2.2 0.1zm-2.7-0.1q-2.3-0.2-4.4-0.7 2.1 0.5 4.4 0.7z"/></svg>