<svg version="1.2" xmlns="http://www.w3.org/2000/svg" viewBox="0 0 256 256" width="256" height="256"><style>.a{fill:#fff}.b{fill:#00a6cc}</style><path class="a" d="m128 256c-70.8 0-128-57.2-128-128 0-70.8 57.2-128 128-128 70.8 0 128 57.2 128 128 0 70.8-57.2 128-128 128z"/><path fill-rule="evenodd" class="b" d="m256 128c0 57.3-37.7 105.8-89.6 122.1v-42.1c0-11.5-4.8-21.8-12.8-28.8 30-6 51.2-23.2 51.2-51.2 0-14.2-5.6-27.2-14.9-37.8 0.8-2.5 2.1-8.3 2.1-18.2 0-6.1-0.4-13.5-3.2-20.8 0 0-18.3 0.1-35.5 16.4-7.9-2.3-16.4-3.6-25.3-3.6-8.9 0-17.4 1.3-25.3 3.6-17.2-16.3-35.5-16.4-35.5-16.4-2.8 7.3-3.2 14.7-3.2 20.8 0 9.2 1.6 14.8 2.6 17.6-9.6 10.7-15.4 24-15.4 38.4 0 28 21.2 45.2 51.2 51.2-6.7 5.9-10.9 14.2-12.2 23.5-2.9 1.4-7 2.1-11.8 2.1-3.9 0-11.3-1.8-18.3-12.7-2.8-4.4-8.9-12.9-16.9-12.9-1.6 0-4.8-0.1-4.8 2.3 0 1.2 1.8 1.2 5.6 4.5 3.1 2.9 6.1 7.5 7.2 12.4 1.9 8 9.3 24 27.2 24 6.4 0 11.2-1.6 11.2-1.6v29.3c-51.9-16.3-89.6-64.8-89.6-122.1 0-70.7 57.3-128 128-128 70.7 0 128 57.3 128 128zm-157.8 124.5q-4.3-1.1-8.6-2.4 4.3 1.3 8.6 2.4zm68.2-2.4q-4.3 1.4-8.6 2.4 4.3-1.1 8.6-2.4zm-29.5 5.5c-2.9 0.2-5.9 0.4-8.9 0.4 3 0 6-0.2 8.9-0.4zm19.6-2.8q-8.6 1.9-17.6 2.7 9-0.8 17.6-2.7zm-28.5 3.2c-3 0-6-0.2-8.9-0.4 2.9 0.2 5.9 0.4 8.9 0.4zm-10.9-0.5q-9-0.8-17.6-2.7 8.6 1.9 17.6 2.7z"/></svg>